<svg width="24" height="24" viewBox="0 0 24 24" fill="none" xmlns="http://www.w3.org/2000/svg">
<path d="M12.5 4.55201C14.1404 4.52563 15.7253 5.14519 16.913 6.27701L20.195 2.99501C18.1127 1.04088 15.3554 -0.0322976 12.5 6.7993e-06C10.3687 -0.000334131 8.27922 0.591934 6.46509 1.71064C4.65097 2.82935 3.18362 4.43043 2.22699 6.33501L6.05099 9.30001C6.49393 7.9333 7.35448 6.74001 8.51143 5.88822C9.66838 5.03643 11.0634 4.56908 12.5 4.55201Z" fill="#EA4335"/>
<path d="M23.511 11.763C23.5073 11.0327 23.4465 10.3038 23.329 9.58301H12.5V13.905H18.7C18.5657 14.6017 18.2941 15.2647 17.9009 15.8553C17.5077 16.4459 17.0009 16.9523 16.41 17.345L20.11 20.22C21.2343 19.1248 22.1175 17.8068 22.703 16.3505C23.2885 14.8942 23.5634 13.3317 23.51 11.763H23.511Z" fill="#4285F4"/>
<path d="M6.046 13.7C5.80764 12.9909 5.68474 12.2481 5.682 11.5C5.68239 10.7517 5.80535 10.0085 6.046 9.30001L2.222 6.33501C1.41694 7.93791 0.997681 9.70679 0.997681 11.5005C0.997681 13.2942 1.41694 15.0631 2.222 16.666L6.046 13.7Z" fill="#FBBC05"/>
<path d="M12.5 23C15.3008 23.0809 18.026 22.0845 20.114 20.216L16.414 17.341C15.2501 18.0906 13.888 18.4738 12.504 18.441C11.0665 18.4243 9.67043 17.9575 8.51204 17.1062C7.35365 16.2549 6.49121 15.0619 6.04598 13.695L2.22198 16.661C3.17899 18.5667 4.64701 20.1687 6.46202 21.2881C8.27702 22.4075 10.3675 23.0002 12.5 23Z" fill="#34A853"/>
</svg>
